<svg width="16" height="16" viewBox="0 0 16 16" fill="none" xmlns="http://www.w3.org/2000/svg">
<path fill-rule="evenodd" clip-rule="evenodd" d="M3.35199 14.242C2.50627 13.8315 1.80312 13.1395 1.25038 12.2093C1.06231 11.8927 1.20519 11.4921 1.53705 11.3327C1.86891 11.1732 2.26299 11.3163 2.45767 11.6287C2.89079 12.324 3.39445 12.7805 3.93427 13.0425C4.60844 13.3698 5.41561 13.4311 6.35974 13.1707L6.71433 14.4559C5.5212 14.7852 4.37179 14.7371 3.35199 14.242Z" fill="#444444"/>
<path d="M3.92881 0.833328C4.21619 0.833328 4.61595 0.900328 4.88655 0.965955C5.36653 1.08237 5.98149 1.30565 6.5554 1.73753C7.05487 1.61967 7.76227 1.48211 8.66667 1.48209C9.57107 1.48207 10.2785 1.61968 10.7779 1.73755C11.3519 1.30565 11.9668 1.08237 12.4468 0.965962C12.7174 0.900328 13.1271 0.833328 13.4045 0.833328H13.7463L13.8704 1.1518C14.0433 1.59539 14.1057 2.13502 14.1066 2.64116C14.1073 3.06727 14.0643 3.49898 13.9893 3.87555C14.1923 4.19666 14.3819 4.57726 14.5291 4.96795C14.7046 5.4338 14.8333 5.94936 14.8333 6.41906C14.8333 8.0338 14.2923 9.1742 13.4366 9.9788C12.7866 10.5899 11.9799 10.9835 11.1639 11.2629C11.3387 11.5261 11.5 11.874 11.5 12.3301V13.8333C11.5 14.4619 11.5 14.7761 11.3047 14.9714C11.1095 15.1667 10.7952 15.1667 10.1667 15.1667H7.16667C6.53813 15.1667 6.22386 15.1667 6.02859 14.9714C5.83333 14.7761 5.83333 14.4619 5.83333 13.8333V12.3301C5.83333 11.874 5.99463 11.5261 6.16943 11.2629C5.35345 10.9835 4.54672 10.5899 3.89671 9.9788C3.04102 9.1742 2.5 8.0338 2.5 6.41906C2.5 5.94936 2.62873 5.4338 2.80425 4.96795C2.95147 4.57726 3.14102 4.19666 3.34401 3.87554C3.26897 3.49898 3.22599 3.06726 3.22673 2.64116C3.2276 2.13502 3.29009 1.59539 3.46293 1.1518L3.58702 0.833328H3.92881Z" fill="#444444"/>
</svg>
