<svg width="16" height="16" viewBox="0 0 16 16" fill="none" xmlns="http://www.w3.org/2000/svg">
<g>
<path fill-rule="evenodd" clip-rule="evenodd" d="M3.45447 0.83454C3.66662 0.819794 3.86491 0.94074 3.94881 1.13607L5.85439 5.57234C5.94396 5.78088 5.99614 5.90063 6.04368 5.98495C6.08409 6.05661 6.10451 6.06893 6.18476 6.07757C6.2813 6.08797 6.41231 6.08864 6.63967 6.08864H9.36824C9.59557 6.08864 9.72657 6.08797 9.82311 6.07757C9.90031 6.06926 9.92564 6.05337 9.96424 5.98495C10.0118 5.90063 10.0639 5.78088 10.1535 5.57234L12.0591 1.13607C12.143 0.94074 12.3413 0.819794 12.5534 0.83454C12.7656 0.84928 12.9452 0.996494 13.0012 1.20155L15.0269 8.61219C15.0795 8.80433 15.1289 8.98513 15.154 9.14193C15.2176 9.54059 15.0982 9.89786 14.8078 10.1784C14.6935 10.2888 14.5453 10.4038 14.3877 10.5261L9.12244 14.612C8.93984 14.7538 8.76964 14.8859 8.61484 14.9789C8.44297 15.0822 8.24451 15.1667 8.00397 15.1667C7.76337 15.1667 7.56491 15.0822 7.39304 14.9789C7.23824 14.8859 7.06811 14.7538 6.88544 14.612L1.62021 10.5261C1.46259 10.4038 1.31437 10.2888 1.20009 10.1784C0.909727 9.89786 0.790301 9.54059 0.853934 9.14193C0.878967 8.98513 0.928414 8.80433 0.980961 8.61219L3.00663 1.20155C3.06269 0.996494 3.24231 0.84928 3.45447 0.83454Z" fill="#444444"/>
</g>
</svg>
